<?xml version="1.0" encoding="utf-8"?>
<!-- Generator: Adobe Illustrator 19.2.1, SVG Export Plug-In . SVG Version: 6.00 Build 0)  -->
<svg version="1.1" xmlns="http://www.w3.org/2000/svg" xmlns:xlink="http://www.w3.org/1999/xlink" x="0px" y="0px"
	 viewBox="0 0 72 72" style="enable-background:new 0 0 72 72;" xml:space="preserve">
<style type="text/css">
	.st0{display:none;}
	.st1{display:inline;fill:#00B3E2;}
	.st2{display:inline;fill:#2374BB;}
	.st3{display:inline;fill:#00945E;}
	.st4{fill:#00C0F3;}
	.st5{fill:#FFFFFF;}
	.st6{fill:#0081C6;}
</style>
<g id="_x33_06_C" class="st0">
	<path class="st1" d="M36,50.9c8.2,0,14.9-6.7,14.9-14.9c0-8.2-6.7-14.9-14.9-14.9c-8.2,0-14.9,6.7-14.9,14.9
		C21.1,44.2,27.8,50.9,36,50.9L36,50.9z"/>
</g>
<g id="_x33_005C" class="st0">
	<path class="st2" d="M36,50.9c8.2,0,14.9-6.7,14.9-14.9c0-8.2-6.7-14.9-14.9-14.9c-8.2,0-14.9,6.7-14.9,14.9
		C21.1,44.2,27.8,50.9,36,50.9L36,50.9z"/>
</g>
<g id="_x33_40C" class="st0">
	<path class="st3" d="M36,50.9c8.2,0,14.9-6.7,14.9-14.9c0-8.2-6.7-14.9-14.9-14.9c-8.2,0-14.9,6.7-14.9,14.9
		C21.1,44.2,27.8,50.9,36,50.9L36,50.9z"/>
</g>
<g id="_x33_68C">
	<circle class="st4" cx="36" cy="36" r="36"/>
	<path class="st5" d="M25.5,15.2C25.5,15.2,25.5,15.2,25.5,15.2c0.1,0.1,0.2,0.2,0.3,0.4c0,0,0,0,0.1,0.1c0.6,0.6,1.3,1,2.1,1.2
		c0.3,0.1,0.6,0.1,0.9,0.1c1.4,0.1,2.7-0.5,3.7-1.7c0.2-0.3,0.4-0.6,0.6-0.9c0.1-0.1,0.1-0.3,0.2-0.4c0.1-0.1,0.1-0.3,0.2-0.4
		c0.1-0.3,0.3-0.7,0.4-1.1c0.6-3.1-1.1-6.3-3.8-7C29,5.2,27.8,5.4,26.7,6c-1.3,0.8-2.2,2.2-2.5,3.8c-0.4,1.8,0,3.6,1,5
		C25.3,14.9,25.4,15.1,25.5,15.2z"/>
	<path class="st5" d="M38.1,15.9c-0.3-0.2-0.7-0.3-1.1-0.5l0,0c-0.2-0.1-0.4-0.1-0.6-0.2c-0.2-0.1-0.4-0.2-0.6-0.2
		c-0.5-0.2-1.1-0.4-1.6-0.5c-0.3,0.5-0.6,1-0.9,1.4c-1.1,1.2-2.6,2-4.2,2c-0.1,0-0.2,0-0.3,0c-0.4,0-0.7-0.1-1.1-0.2h0
		c-0.9-0.2-1.8-0.7-2.5-1.4c-0.1-0.1-0.3-0.3-0.4-0.4c-2.7,0.8-6.1,1-7.7,4.3c-0.5,0.5-1.2,2.6-1.6,3.7c-0.6,1.7-1.4,3.7-1.4,6.2
		c0,3,0.8,6.6,2.6,11c0.3,0.8,1.1,1.3,2,1.3c0.3,0,0.5-0.1,0.8-0.2c1.1-0.5,1.6-1.7,1.1-2.8c-1.7-4-2.3-7.1-2.3-9.4
		c0-1.9,0.4-3.2,0.9-4.2c0.6-1.2,1.5-2,2.3-2.5v39.9c0,1.9,1.5,3.4,3.4,3.4c1.9,0,3.4-1.5,3.4-3.4V41.1h1.3v21.9
		c0,1.9,1.5,3.4,3.4,3.4c0.5,0,0.9-0.1,1.3-0.3c0,0,0,0,0,0c0.4-0.2,0.7-0.4,1.1-0.7c0,0,0,0,0,0c0.6-0.6,1-1.4,1-2.3
		c0-0.1,0-0.1,0-0.1V22.3v-0.3c0-0.5,0.2-2.4,0.3-2.9c0.1-0.3,0.2-0.6,0.3-0.9c0,0,0-0.1,0-0.1c0.1-0.1,0.1-0.3,0.2-0.4
		c0.1-0.1,0.1-0.3,0.2-0.4l0,0l0,0C37.9,16.4,38.2,15.8,38.1,15.9C38.1,15.9,38.1,15.9,38.1,15.9z"/>
	<path class="st6" d="M40,13.5c0,0.1,0.1,0.3,0.1,0.4c0,0.1,0.1,0.3,0.1,0.4c0.3,0.7,0.6,1.4,1.1,2c1,1.1,2.4,1.7,3.7,1.7
		c0.3,0,0.6-0.1,0.9-0.1c0.8-0.2,1.5-0.6,2.1-1.2c0.1-0.1,0.2-0.2,0.4-0.4c0.1-0.2,0.2-0.4,0.3-0.5c0.1-0.1,0.2-0.2,0.2-0.4
		c0.1-0.1,0.2-0.2,0.2-0.4c0.6-1.2,0.8-2.7,0.5-4.1c-0.3-1.6-1.2-3-2.5-3.8c-0.7-0.5-1.6-0.7-2.4-0.7c-0.4,0-0.8,0-1.1,0.1
		C41,7.3,39.3,10.4,40,13.5C40,13.5,40,13.5,40,13.5z"/>
	<path class="st5" d="M50.5,19.7c0.5,0.3,1.2,0.5,1.8,0.3c0.6-0.1,1.1-0.5,1.5-1v0c0-0.1,0.1-0.1,0.1-0.2c0.1-0.1,0.2-0.3,0.2-0.4
		c0.1-0.1,0.2-0.3,0.2-0.4c0.1-0.2,0.1-0.3,0.1-0.4c0-0.2-0.2-0.5-1.5-1.5c-1.1-0.8-1.5-1-1.7-1c0,0-0.1,0-0.1,0
		c-0.1,0-0.3,0.2-0.5,0.5c-0.1,0.1-0.2,0.2-0.3,0.3c-0.1,0.1-0.2,0.2-0.3,0.4c0,0.1-0.1,0.1-0.1,0.2C49.1,17.6,49.4,19,50.5,19.7z"
		/>
	<path class="st6" d="M58.4,23.8c-0.6-1.1-1.5-2.2-2-2.8c-0.5-0.5-1.2-1.1-1.9-1.7c0,0,0,0.1-0.1,0.1c-0.5,0.7-1.2,1.2-2,1.4
		C52.3,20.9,52,21,51.8,21c-0.6,0-1.2-0.2-1.7-0.5c-1.1-0.7-1.6-1.9-1.4-3.1c-0.7,0.7-1.5,1.1-2.4,1.4c-0.4,0.1-0.7,0.2-1.1,0.2
		c-0.1,0-0.2,0-0.3,0c-1.6,0-3.1-0.7-4.2-1.9c-0.5-0.6-0.9-1.2-1.1-1.9l-0.6,1.2c0,0-0.8,1.7-1.2,3c-0.1,0.4-0.3,2.2-0.3,2.7v0.3
		v40.8c0,0.1,0,0.1,0,0.1c0.1,1.8,1.6,3.3,3.4,3.3c1.9,0,3.4-1.5,3.4-3.4V41.1h1.3v21.9c0,1.9,1.5,3.4,3.4,3.4
		c1.9,0,3.4-1.5,3.4-3.4V23.2c0.8,0.5,1.7,1.3,2.3,2.5c0.5,1,0.9,2.4,0.9,4.2c0,2.3-0.6,5.3-2.3,9.4c-0.5,1.1,0.1,2.3,1.1,2.8
		c0.3,0.1,0.5,0.2,0.8,0.2c0.8,0,1.6-0.5,2-1.3c1.8-4.4,2.6-8,2.6-11C59.8,27.5,59.3,25.4,58.4,23.8z"/>
	<path class="st4" d="M36,0C16.1,0,0,16.1,0,36c0,19.9,16.1,36,36,36c19.9,0,36-16.1,36-36C72,16.1,55.9,0,36,0z M58,41.3
		c-0.5,1.1-1.5,1.8-2.8,1.8c-0.4,0-0.8-0.1-1.1-0.2c-0.3-0.1-0.6-0.3-0.9-0.6v20.7c0,2.4-1.9,4.3-4.3,4.3c-1.9,0-3.5-1.2-4.1-2.9
		c-0.6,1.7-2.2,2.9-4.1,2.9c-1.7,0-3.1-1-3.8-2.4c-0.7,1.4-2.1,2.4-3.8,2.4c-1.9,0-3.5-1.2-4.1-2.9c-0.6,1.7-2.2,2.9-4.1,2.9
		c-2.4,0-4.3-1.9-4.3-4.3V42.4c-0.3,0.2-0.5,0.4-0.9,0.6c-0.4,0.2-0.8,0.2-1.1,0.2c-1.2,0-2.3-0.7-2.8-1.8c-1.8-4.3-2.7-8-2.7-11.3
		c0-2.6,0.7-4.6,1.4-6.3l0.1-0.1l0.1-0.3c0.6-1.6,1.1-3,1.6-3.6c1.5-3,4.4-3.7,6.8-4.3c0.4-0.1,0.8-0.2,1.1-0.3
		c-1-1.6-1.4-3.5-1-5.4c0.4-1.8,1.4-3.4,2.9-4.3c1.3-0.8,2.8-1,4.2-0.6c3.2,0.8,5.1,4.4,4.4,8c-0.1,0.3-0.2,0.7-0.3,1
		c0.8,0.2,1.7,0.5,2.5,0.8c0.7-0.3,1.4-0.5,2.2-0.7c-0.7-3.6,1.2-7.1,4.4-8c1.4-0.4,2.9-0.1,4.2,0.6c1.5,0.9,2.5,2.5,2.9,4.3
		c0.3,1.3,0.1,2.6-0.3,3.8c0.2-0.1,0.3-0.2,0.5-0.3c0.6-0.2,1.2,0.1,2.6,1.1c1.4,1.1,1.9,1.5,1.9,2.2c0,0.3-0.1,0.6-0.3,1
		c0.8,0.6,1.4,1.2,2,1.8l0,0l0,0c0.5,0.6,1.5,1.8,2.1,2.9c1,1.9,1.5,4.1,1.5,6.6C60.7,33.3,59.8,37,58,41.3z"/>
</g>
</svg>
